<mxfile host="app.diagrams.net" agent="Mozilla/5.0 (Windows NT 10.0; Win64; x64) AppleWebKit/537.36 (KHTML, like Gecko) Chrome/131.0.0.0 Safari/537.36" version="25.0.1">
  <diagram name="Page-1" id="Vp6w_eThmjRIwgo-GgMT">
    <mxGraphModel dx="3925" dy="1918" grid="1" gridSize="10" guides="1" tooltips="1" connect="1" arrows="1" fold="1" page="1" pageScale="1" pageWidth="827" pageHeight="1169" math="0" shadow="0">
      <root>
        <mxCell id="0" />
        <mxCell id="1" parent="0" />
        <mxCell id="LnNAMLkMulRpdYiX00u5-9" style="edgeStyle=orthogonalEdgeStyle;rounded=0;orthogonalLoop=1;jettySize=auto;html=1;exitX=0;exitY=0.85;exitDx=0;exitDy=0;exitPerimeter=0;" edge="1" parent="1" source="Dli6yr8ReoWc1DOzibWK-1" target="LnNAMLkMulRpdYiX00u5-10">
          <mxGeometry relative="1" as="geometry">
            <mxPoint x="110" y="-10" as="targetPoint" />
          </mxGeometry>
        </mxCell>
        <mxCell id="LnNAMLkMulRpdYiX00u5-14" style="edgeStyle=orthogonalEdgeStyle;rounded=0;orthogonalLoop=1;jettySize=auto;html=1;exitX=1;exitY=0.5;exitDx=0;exitDy=0;exitPerimeter=0;entryX=0.5;entryY=0;entryDx=0;entryDy=0;" edge="1" parent="1" source="Dli6yr8ReoWc1DOzibWK-1">
          <mxGeometry relative="1" as="geometry">
            <mxPoint x="200" y="-150" as="targetPoint" />
          </mxGeometry>
        </mxCell>
        <mxCell id="Dli6yr8ReoWc1DOzibWK-1" value="" style="fontColor=#0066CC;verticalAlign=top;verticalLabelPosition=bottom;labelPosition=center;align=center;html=1;outlineConnect=0;fillColor=#CCCCCC;strokeColor=#6881B3;gradientColor=none;gradientDirection=north;strokeWidth=2;shape=mxgraph.networks.pc;" parent="1" vertex="1">
          <mxGeometry x="-10" y="-310" width="100" height="70" as="geometry" />
        </mxCell>
        <mxCell id="Dli6yr8ReoWc1DOzibWK-2" value="" style="fontColor=#0066CC;verticalAlign=top;verticalLabelPosition=bottom;labelPosition=center;align=center;html=1;outlineConnect=0;fillColor=#CCCCCC;strokeColor=#6881B3;gradientColor=none;gradientDirection=north;strokeWidth=2;shape=mxgraph.networks.pc;" parent="1" vertex="1">
          <mxGeometry x="30" y="120" width="100" height="70" as="geometry" />
        </mxCell>
        <mxCell id="Dli6yr8ReoWc1DOzibWK-14" value="Sever" style="text;html=1;align=center;verticalAlign=middle;resizable=0;points=[];autosize=1;strokeColor=none;fillColor=none;" parent="1" vertex="1">
          <mxGeometry x="25" y="-350" width="50" height="30" as="geometry" />
        </mxCell>
        <mxCell id="Dli6yr8ReoWc1DOzibWK-17" value="" style="fontColor=#0066CC;verticalAlign=top;verticalLabelPosition=bottom;labelPosition=center;align=center;html=1;outlineConnect=0;fillColor=#CCCCCC;strokeColor=#6881B3;gradientColor=none;gradientDirection=north;strokeWidth=2;shape=mxgraph.networks.pc;" parent="1" vertex="1">
          <mxGeometry x="-230" y="150" width="100" height="70" as="geometry" />
        </mxCell>
        <mxCell id="Dli6yr8ReoWc1DOzibWK-19" value="Filserver" style="text;html=1;align=center;verticalAlign=middle;resizable=0;points=[];autosize=1;strokeColor=none;fillColor=none;" parent="1" vertex="1">
          <mxGeometry x="-90" y="228" width="70" height="30" as="geometry" />
        </mxCell>
        <mxCell id="Dli6yr8ReoWc1DOzibWK-21" value="Admin" style="swimlane;fontStyle=0;childLayout=stackLayout;horizontal=1;startSize=30;horizontalStack=0;resizeParent=1;resizeParentMax=0;resizeLast=0;collapsible=1;marginBottom=0;whiteSpace=wrap;html=1;" parent="1" vertex="1">
          <mxGeometry x="520" y="-230" width="140" height="120" as="geometry" />
        </mxCell>
        <mxCell id="Dli6yr8ReoWc1DOzibWK-22" value="Eyoel" style="text;strokeColor=none;fillColor=none;align=left;verticalAlign=middle;spacingLeft=4;spacingRight=4;overflow=hidden;points=[[0,0.5],[1,0.5]];portConstraint=eastwest;rotatable=0;whiteSpace=wrap;html=1;" parent="Dli6yr8ReoWc1DOzibWK-21" vertex="1">
          <mxGeometry y="30" width="140" height="30" as="geometry" />
        </mxCell>
        <mxCell id="Dli6yr8ReoWc1DOzibWK-23" value="Hoger" style="text;strokeColor=none;fillColor=none;align=left;verticalAlign=middle;spacingLeft=4;spacingRight=4;overflow=hidden;points=[[0,0.5],[1,0.5]];portConstraint=eastwest;rotatable=0;whiteSpace=wrap;html=1;" parent="Dli6yr8ReoWc1DOzibWK-21" vertex="1">
          <mxGeometry y="60" width="140" height="30" as="geometry" />
        </mxCell>
        <mxCell id="Dli6yr8ReoWc1DOzibWK-24" value="Mohammed" style="text;strokeColor=none;fillColor=none;align=left;verticalAlign=middle;spacingLeft=4;spacingRight=4;overflow=hidden;points=[[0,0.5],[1,0.5]];portConstraint=eastwest;rotatable=0;whiteSpace=wrap;html=1;" parent="Dli6yr8ReoWc1DOzibWK-21" vertex="1">
          <mxGeometry y="90" width="140" height="30" as="geometry" />
        </mxCell>
        <mxCell id="LnNAMLkMulRpdYiX00u5-3" value="brukere" style="swimlane;fontStyle=0;childLayout=stackLayout;horizontal=1;startSize=30;horizontalStack=0;resizeParent=1;resizeParentMax=0;resizeLast=0;collapsible=1;marginBottom=0;whiteSpace=wrap;html=1;" vertex="1" parent="1">
          <mxGeometry x="560" y="-80" width="140" height="120" as="geometry" />
        </mxCell>
        <mxCell id="LnNAMLkMulRpdYiX00u5-4" value="Elev1" style="text;strokeColor=none;fillColor=none;align=left;verticalAlign=middle;spacingLeft=4;spacingRight=4;overflow=hidden;points=[[0,0.5],[1,0.5]];portConstraint=eastwest;rotatable=0;whiteSpace=wrap;html=1;" vertex="1" parent="LnNAMLkMulRpdYiX00u5-3">
          <mxGeometry y="30" width="140" height="30" as="geometry" />
        </mxCell>
        <mxCell id="LnNAMLkMulRpdYiX00u5-5" value="elev2" style="text;strokeColor=none;fillColor=none;align=left;verticalAlign=middle;spacingLeft=4;spacingRight=4;overflow=hidden;points=[[0,0.5],[1,0.5]];portConstraint=eastwest;rotatable=0;whiteSpace=wrap;html=1;" vertex="1" parent="LnNAMLkMulRpdYiX00u5-3">
          <mxGeometry y="60" width="140" height="30" as="geometry" />
        </mxCell>
        <mxCell id="LnNAMLkMulRpdYiX00u5-6" value="Ansarr" style="text;strokeColor=none;fillColor=none;align=left;verticalAlign=middle;spacingLeft=4;spacingRight=4;overflow=hidden;points=[[0,0.5],[1,0.5]];portConstraint=eastwest;rotatable=0;whiteSpace=wrap;html=1;" vertex="1" parent="LnNAMLkMulRpdYiX00u5-3">
          <mxGeometry y="90" width="140" height="30" as="geometry" />
        </mxCell>
        <mxCell id="LnNAMLkMulRpdYiX00u5-18" style="edgeStyle=orthogonalEdgeStyle;rounded=0;orthogonalLoop=1;jettySize=auto;html=1;exitX=0.5;exitY=1;exitDx=0;exitDy=0;" edge="1" parent="1" source="LnNAMLkMulRpdYiX00u5-10" target="Dli6yr8ReoWc1DOzibWK-2">
          <mxGeometry relative="1" as="geometry" />
        </mxCell>
        <mxCell id="LnNAMLkMulRpdYiX00u5-10" value="DHCP" style="rounded=0;whiteSpace=wrap;html=1;" vertex="1" parent="1">
          <mxGeometry x="-70" y="-20" width="120" height="60" as="geometry" />
        </mxCell>
        <mxCell id="LnNAMLkMulRpdYiX00u5-15" style="edgeStyle=orthogonalEdgeStyle;rounded=0;orthogonalLoop=1;jettySize=auto;html=1;exitX=1;exitY=0.5;exitDx=0;exitDy=0;entryX=0;entryY=0.5;entryDx=0;entryDy=0;" edge="1" parent="1" target="Dli6yr8ReoWc1DOzibWK-23">
          <mxGeometry relative="1" as="geometry">
            <mxPoint x="260" y="-120" as="sourcePoint" />
          </mxGeometry>
        </mxCell>
        <mxCell id="LnNAMLkMulRpdYiX00u5-16" style="edgeStyle=orthogonalEdgeStyle;rounded=0;orthogonalLoop=1;jettySize=auto;html=1;exitX=0.75;exitY=1;exitDx=0;exitDy=0;entryX=0;entryY=0.5;entryDx=0;entryDy=0;" edge="1" parent="1" target="LnNAMLkMulRpdYiX00u5-5">
          <mxGeometry relative="1" as="geometry">
            <mxPoint x="230" y="-90" as="sourcePoint" />
          </mxGeometry>
        </mxCell>
        <mxCell id="LnNAMLkMulRpdYiX00u5-17" style="edgeStyle=orthogonalEdgeStyle;rounded=0;orthogonalLoop=1;jettySize=auto;html=1;exitX=0;exitY=0.5;exitDx=0;exitDy=0;entryX=1;entryY=0.5;entryDx=0;entryDy=0;entryPerimeter=0;" edge="1" parent="1" source="LnNAMLkMulRpdYiX00u5-10" target="Dli6yr8ReoWc1DOzibWK-17">
          <mxGeometry relative="1" as="geometry" />
        </mxCell>
        <mxCell id="LnNAMLkMulRpdYiX00u5-23" value="" style="rounded=1;arcSize=10;dashed=1;fillColor=none;gradientColor=none;dashPattern=8 3 1 3;strokeWidth=2;" vertex="1" parent="1">
          <mxGeometry x="-1660" y="-240" width="1060" height="630" as="geometry" />
        </mxCell>
        <mxCell id="LnNAMLkMulRpdYiX00u5-24" value="&lt;font style=&quot;font-size: 48px;&quot;&gt;drift.hem&lt;/font&gt;" style="text;html=1;align=center;verticalAlign=middle;resizable=0;points=[];autosize=1;strokeColor=none;fillColor=none;" vertex="1" parent="1">
          <mxGeometry x="-1280" y="-340" width="210" height="70" as="geometry" />
        </mxCell>
        <mxCell id="LnNAMLkMulRpdYiX00u5-25" style="edgeStyle=orthogonalEdgeStyle;rounded=0;orthogonalLoop=1;jettySize=auto;html=1;exitX=0;exitY=0.85;exitDx=0;exitDy=0;exitPerimeter=0;" edge="1" parent="1" source="LnNAMLkMulRpdYiX00u5-27" target="LnNAMLkMulRpdYiX00u5-39">
          <mxGeometry relative="1" as="geometry">
            <mxPoint x="-1290" y="120" as="targetPoint" />
          </mxGeometry>
        </mxCell>
        <mxCell id="LnNAMLkMulRpdYiX00u5-45" style="edgeStyle=orthogonalEdgeStyle;rounded=0;orthogonalLoop=1;jettySize=auto;html=1;exitX=0.95;exitY=1;exitDx=0;exitDy=0;exitPerimeter=0;entryX=0;entryY=0;entryDx=0;entryDy=0;" edge="1" parent="1" source="LnNAMLkMulRpdYiX00u5-27" target="LnNAMLkMulRpdYiX00u5-44">
          <mxGeometry relative="1" as="geometry" />
        </mxCell>
        <mxCell id="LnNAMLkMulRpdYiX00u5-48" style="edgeStyle=orthogonalEdgeStyle;rounded=0;orthogonalLoop=1;jettySize=auto;html=1;exitX=1;exitY=0.5;exitDx=0;exitDy=0;exitPerimeter=0;" edge="1" parent="1" source="LnNAMLkMulRpdYiX00u5-27" target="LnNAMLkMulRpdYiX00u5-32">
          <mxGeometry relative="1" as="geometry" />
        </mxCell>
        <mxCell id="LnNAMLkMulRpdYiX00u5-27" value="" style="fontColor=#0066CC;verticalAlign=top;verticalLabelPosition=bottom;labelPosition=center;align=center;html=1;outlineConnect=0;fillColor=#CCCCCC;strokeColor=#6881B3;gradientColor=none;gradientDirection=north;strokeWidth=2;shape=mxgraph.networks.pc;" vertex="1" parent="1">
          <mxGeometry x="-1410" y="-180" width="100" height="70" as="geometry" />
        </mxCell>
        <mxCell id="LnNAMLkMulRpdYiX00u5-46" style="edgeStyle=orthogonalEdgeStyle;rounded=0;orthogonalLoop=1;jettySize=auto;html=1;exitX=1;exitY=0.07;exitDx=0;exitDy=0;exitPerimeter=0;entryX=0.5;entryY=1;entryDx=0;entryDy=0;" edge="1" parent="1" source="LnNAMLkMulRpdYiX00u5-28" target="LnNAMLkMulRpdYiX00u5-44">
          <mxGeometry relative="1" as="geometry" />
        </mxCell>
        <mxCell id="LnNAMLkMulRpdYiX00u5-28" value="" style="fontColor=#0066CC;verticalAlign=top;verticalLabelPosition=bottom;labelPosition=center;align=center;html=1;outlineConnect=0;fillColor=#CCCCCC;strokeColor=#6881B3;gradientColor=none;gradientDirection=north;strokeWidth=2;shape=mxgraph.networks.pc;" vertex="1" parent="1">
          <mxGeometry x="-1370" y="250" width="100" height="70" as="geometry" />
        </mxCell>
        <mxCell id="LnNAMLkMulRpdYiX00u5-43" style="edgeStyle=orthogonalEdgeStyle;rounded=0;orthogonalLoop=1;jettySize=auto;html=1;exitX=0.5;exitY=0.07;exitDx=0;exitDy=0;exitPerimeter=0;entryX=0;entryY=0.75;entryDx=0;entryDy=0;" edge="1" parent="1" source="LnNAMLkMulRpdYiX00u5-29" target="LnNAMLkMulRpdYiX00u5-39">
          <mxGeometry relative="1" as="geometry" />
        </mxCell>
        <mxCell id="LnNAMLkMulRpdYiX00u5-47" style="edgeStyle=orthogonalEdgeStyle;rounded=0;orthogonalLoop=1;jettySize=auto;html=1;exitX=0;exitY=0;exitDx=0;exitDy=0;exitPerimeter=0;entryX=0;entryY=0.5;entryDx=0;entryDy=0;" edge="1" parent="1" source="LnNAMLkMulRpdYiX00u5-29" target="LnNAMLkMulRpdYiX00u5-44">
          <mxGeometry relative="1" as="geometry" />
        </mxCell>
        <mxCell id="LnNAMLkMulRpdYiX00u5-29" value="" style="fontColor=#0066CC;verticalAlign=top;verticalLabelPosition=bottom;labelPosition=center;align=center;html=1;outlineConnect=0;fillColor=#CCCCCC;strokeColor=#6881B3;gradientColor=none;gradientDirection=north;strokeWidth=2;shape=mxgraph.networks.pc;" vertex="1" parent="1">
          <mxGeometry x="-1570" y="240" width="100" height="70" as="geometry" />
        </mxCell>
        <mxCell id="LnNAMLkMulRpdYiX00u5-30" value="Admin" style="swimlane;fontStyle=0;childLayout=stackLayout;horizontal=1;startSize=30;horizontalStack=0;resizeParent=1;resizeParentMax=0;resizeLast=0;collapsible=1;marginBottom=0;whiteSpace=wrap;html=1;" vertex="1" parent="1">
          <mxGeometry x="-1130" y="-190" width="140" height="120" as="geometry" />
        </mxCell>
        <mxCell id="LnNAMLkMulRpdYiX00u5-31" value="Eyoel" style="text;strokeColor=none;fillColor=none;align=left;verticalAlign=middle;spacingLeft=4;spacingRight=4;overflow=hidden;points=[[0,0.5],[1,0.5]];portConstraint=eastwest;rotatable=0;whiteSpace=wrap;html=1;" vertex="1" parent="LnNAMLkMulRpdYiX00u5-30">
          <mxGeometry y="30" width="140" height="30" as="geometry" />
        </mxCell>
        <mxCell id="LnNAMLkMulRpdYiX00u5-32" value="Hoger" style="text;strokeColor=none;fillColor=none;align=left;verticalAlign=middle;spacingLeft=4;spacingRight=4;overflow=hidden;points=[[0,0.5],[1,0.5]];portConstraint=eastwest;rotatable=0;whiteSpace=wrap;html=1;" vertex="1" parent="LnNAMLkMulRpdYiX00u5-30">
          <mxGeometry y="60" width="140" height="30" as="geometry" />
        </mxCell>
        <mxCell id="LnNAMLkMulRpdYiX00u5-33" value="Mohammed" style="text;strokeColor=none;fillColor=none;align=left;verticalAlign=middle;spacingLeft=4;spacingRight=4;overflow=hidden;points=[[0,0.5],[1,0.5]];portConstraint=eastwest;rotatable=0;whiteSpace=wrap;html=1;" vertex="1" parent="LnNAMLkMulRpdYiX00u5-30">
          <mxGeometry y="90" width="140" height="30" as="geometry" />
        </mxCell>
        <mxCell id="LnNAMLkMulRpdYiX00u5-34" value="brukere" style="swimlane;fontStyle=0;childLayout=stackLayout;horizontal=1;startSize=30;horizontalStack=0;resizeParent=1;resizeParentMax=0;resizeLast=0;collapsible=1;marginBottom=0;whiteSpace=wrap;html=1;" vertex="1" parent="1">
          <mxGeometry x="-940" y="-190" width="140" height="120" as="geometry" />
        </mxCell>
        <mxCell id="LnNAMLkMulRpdYiX00u5-35" value="Elev1" style="text;strokeColor=none;fillColor=none;align=left;verticalAlign=middle;spacingLeft=4;spacingRight=4;overflow=hidden;points=[[0,0.5],[1,0.5]];portConstraint=eastwest;rotatable=0;whiteSpace=wrap;html=1;" vertex="1" parent="LnNAMLkMulRpdYiX00u5-34">
          <mxGeometry y="30" width="140" height="30" as="geometry" />
        </mxCell>
        <mxCell id="LnNAMLkMulRpdYiX00u5-36" value="elev2" style="text;strokeColor=none;fillColor=none;align=left;verticalAlign=middle;spacingLeft=4;spacingRight=4;overflow=hidden;points=[[0,0.5],[1,0.5]];portConstraint=eastwest;rotatable=0;whiteSpace=wrap;html=1;" vertex="1" parent="LnNAMLkMulRpdYiX00u5-34">
          <mxGeometry y="60" width="140" height="30" as="geometry" />
        </mxCell>
        <mxCell id="LnNAMLkMulRpdYiX00u5-37" value="Ansatt&amp;nbsp;" style="text;strokeColor=none;fillColor=none;align=left;verticalAlign=middle;spacingLeft=4;spacingRight=4;overflow=hidden;points=[[0,0.5],[1,0.5]];portConstraint=eastwest;rotatable=0;whiteSpace=wrap;html=1;" vertex="1" parent="LnNAMLkMulRpdYiX00u5-34">
          <mxGeometry y="90" width="140" height="30" as="geometry" />
        </mxCell>
        <mxCell id="LnNAMLkMulRpdYiX00u5-38" style="edgeStyle=orthogonalEdgeStyle;rounded=0;orthogonalLoop=1;jettySize=auto;html=1;exitX=0.5;exitY=1;exitDx=0;exitDy=0;" edge="1" parent="1" source="LnNAMLkMulRpdYiX00u5-39" target="LnNAMLkMulRpdYiX00u5-28">
          <mxGeometry relative="1" as="geometry" />
        </mxCell>
        <mxCell id="LnNAMLkMulRpdYiX00u5-39" value="DHCP" style="rounded=0;whiteSpace=wrap;html=1;" vertex="1" parent="1">
          <mxGeometry x="-1470" y="110" width="120" height="60" as="geometry" />
        </mxCell>
        <mxCell id="LnNAMLkMulRpdYiX00u5-44" value="" style="image;html=1;image=img/lib/clip_art/networking/Switch_128x128.png" vertex="1" parent="1">
          <mxGeometry x="-1220" width="80" height="80" as="geometry" />
        </mxCell>
        <mxCell id="LnNAMLkMulRpdYiX00u5-49" value="" style="edgeStyle=orthogonalEdgeStyle;rounded=0;orthogonalLoop=1;jettySize=auto;html=1;" edge="1" parent="1" source="LnNAMLkMulRpdYiX00u5-32" target="LnNAMLkMulRpdYiX00u5-37">
          <mxGeometry relative="1" as="geometry" />
        </mxCell>
        <mxCell id="LnNAMLkMulRpdYiX00u5-50" value="Backup" style="text;html=1;align=center;verticalAlign=middle;resizable=0;points=[];autosize=1;strokeColor=none;fillColor=none;" vertex="1" parent="1">
          <mxGeometry x="-1550" y="310" width="60" height="30" as="geometry" />
        </mxCell>
        <mxCell id="LnNAMLkMulRpdYiX00u5-51" value="Filserver" style="text;html=1;align=center;verticalAlign=middle;resizable=0;points=[];autosize=1;strokeColor=none;fillColor=none;" vertex="1" parent="1">
          <mxGeometry x="-1350" y="330" width="70" height="30" as="geometry" />
        </mxCell>
        <mxCell id="LnNAMLkMulRpdYiX00u5-52" value="&lt;font style=&quot;font-size: 17px;&quot;&gt;server&lt;/font&gt;" style="text;html=1;align=center;verticalAlign=middle;resizable=0;points=[];autosize=1;strokeColor=none;fillColor=none;strokeWidth=6;" vertex="1" parent="1">
          <mxGeometry x="-1375" y="-210" width="70" height="30" as="geometry" />
        </mxCell>
        <mxCell id="LnNAMLkMulRpdYiX00u5-53" value="" style="shape=mxgraph.cisco.computers_and_peripherals.laptop;html=1;pointerEvents=1;dashed=0;fillColor=#036897;strokeColor=#ffffff;strokeWidth=2;verticalLabelPosition=bottom;verticalAlign=top;align=center;outlineConnect=0;" vertex="1" parent="1">
          <mxGeometry x="-1040" y="45" width="90" height="61" as="geometry" />
        </mxCell>
        <mxCell id="LnNAMLkMulRpdYiX00u5-54" value="" style="shape=mxgraph.cisco.computers_and_peripherals.laptop;html=1;pointerEvents=1;dashed=0;fillColor=#036897;strokeColor=#ffffff;strokeWidth=2;verticalLabelPosition=bottom;verticalAlign=top;align=center;outlineConnect=0;" vertex="1" parent="1">
          <mxGeometry x="-900" y="45" width="90" height="61" as="geometry" />
        </mxCell>
        <mxCell id="LnNAMLkMulRpdYiX00u5-55" value="&lt;font style=&quot;font-size: 22px;&quot;&gt;Klient&lt;/font&gt;" style="text;html=1;align=center;verticalAlign=middle;resizable=0;points=[];autosize=1;strokeColor=none;fillColor=none;" vertex="1" parent="1">
          <mxGeometry x="-910" y="120" width="80" height="40" as="geometry" />
        </mxCell>
        <mxCell id="LnNAMLkMulRpdYiX00u5-56" value="&lt;font style=&quot;font-size: 22px;&quot;&gt;Klient&lt;/font&gt;" style="text;html=1;align=center;verticalAlign=middle;resizable=0;points=[];autosize=1;strokeColor=none;fillColor=none;" vertex="1" parent="1">
          <mxGeometry x="-1040" y="110" width="80" height="40" as="geometry" />
        </mxCell>
        <mxCell id="LnNAMLkMulRpdYiX00u5-57" value="" style="shape=link;html=1;rounded=0;strokeWidth=5;" edge="1" parent="1">
          <mxGeometry width="100" relative="1" as="geometry">
            <mxPoint x="-1490" y="670" as="sourcePoint" />
            <mxPoint x="-770" y="670" as="targetPoint" />
          </mxGeometry>
        </mxCell>
        <mxCell id="LnNAMLkMulRpdYiX00u5-65" style="edgeStyle=orthogonalEdgeStyle;rounded=0;orthogonalLoop=1;jettySize=auto;html=1;entryX=0;entryY=0.5;entryDx=0;entryDy=0;" edge="1" parent="1" source="LnNAMLkMulRpdYiX00u5-62" target="LnNAMLkMulRpdYiX00u5-64">
          <mxGeometry relative="1" as="geometry" />
        </mxCell>
        <mxCell id="LnNAMLkMulRpdYiX00u5-62" value="" style="image;aspect=fixed;html=1;points=[];align=center;fontSize=12;image=img/lib/azure2/networking/Azure_Firewall_Manager.svg;" vertex="1" parent="1">
          <mxGeometry x="-1530" y="500" width="140" height="120" as="geometry" />
        </mxCell>
        <mxCell id="LnNAMLkMulRpdYiX00u5-63" value="&lt;font style=&quot;font-size: 20px;&quot;&gt;OPnsense&lt;/font&gt;" style="text;html=1;align=center;verticalAlign=middle;resizable=0;points=[];autosize=1;strokeColor=none;fillColor=none;" vertex="1" parent="1">
          <mxGeometry x="-1530" y="460" width="120" height="40" as="geometry" />
        </mxCell>
        <mxCell id="LnNAMLkMulRpdYiX00u5-68" style="edgeStyle=orthogonalEdgeStyle;rounded=0;orthogonalLoop=1;jettySize=auto;html=1;exitX=0.5;exitY=1;exitDx=0;exitDy=0;" edge="1" parent="1" source="LnNAMLkMulRpdYiX00u5-64">
          <mxGeometry relative="1" as="geometry">
            <mxPoint x="-1210" y="670" as="targetPoint" />
          </mxGeometry>
        </mxCell>
        <mxCell id="LnNAMLkMulRpdYiX00u5-64" value="" style="image;html=1;image=img/lib/clip_art/networking/Switch_128x128.png" vertex="1" parent="1">
          <mxGeometry x="-1280" y="520" width="80" height="80" as="geometry" />
        </mxCell>
        <mxCell id="LnNAMLkMulRpdYiX00u5-73" style="edgeStyle=orthogonalEdgeStyle;rounded=0;orthogonalLoop=1;jettySize=auto;html=1;exitX=0.5;exitY=0.07;exitDx=0;exitDy=0;exitPerimeter=0;" edge="1" parent="1" source="LnNAMLkMulRpdYiX00u5-69">
          <mxGeometry relative="1" as="geometry">
            <mxPoint x="-1380" y="680" as="targetPoint" />
          </mxGeometry>
        </mxCell>
        <mxCell id="LnNAMLkMulRpdYiX00u5-69" value="" style="fontColor=#0066CC;verticalAlign=top;verticalLabelPosition=bottom;labelPosition=center;align=center;html=1;outlineConnect=0;fillColor=#CCCCCC;strokeColor=#6881B3;gradientColor=none;gradientDirection=north;strokeWidth=2;shape=mxgraph.networks.pc;" vertex="1" parent="1">
          <mxGeometry x="-1450" y="770" width="100" height="70" as="geometry" />
        </mxCell>
        <mxCell id="LnNAMLkMulRpdYiX00u5-74" style="edgeStyle=orthogonalEdgeStyle;rounded=0;orthogonalLoop=1;jettySize=auto;html=1;exitX=0.5;exitY=0.07;exitDx=0;exitDy=0;exitPerimeter=0;" edge="1" parent="1" source="LnNAMLkMulRpdYiX00u5-70">
          <mxGeometry relative="1" as="geometry">
            <mxPoint x="-1190" y="680" as="targetPoint" />
          </mxGeometry>
        </mxCell>
        <mxCell id="LnNAMLkMulRpdYiX00u5-70" value="" style="fontColor=#0066CC;verticalAlign=top;verticalLabelPosition=bottom;labelPosition=center;align=center;html=1;outlineConnect=0;fillColor=#CCCCCC;strokeColor=#6881B3;gradientColor=none;gradientDirection=north;strokeWidth=2;shape=mxgraph.networks.pc;" vertex="1" parent="1">
          <mxGeometry x="-1250" y="770" width="100" height="70" as="geometry" />
        </mxCell>
        <mxCell id="LnNAMLkMulRpdYiX00u5-90" style="edgeStyle=orthogonalEdgeStyle;rounded=0;orthogonalLoop=1;jettySize=auto;html=1;exitX=0.25;exitY=0;exitDx=0;exitDy=0;" edge="1" parent="1" source="LnNAMLkMulRpdYiX00u5-71">
          <mxGeometry relative="1" as="geometry">
            <mxPoint x="-910" y="680" as="targetPoint" />
          </mxGeometry>
        </mxCell>
        <mxCell id="LnNAMLkMulRpdYiX00u5-71" value="" style="image;html=1;image=img/lib/clip_art/computers/Laptop_128x128.png" vertex="1" parent="1">
          <mxGeometry x="-910" y="750" width="80" height="80" as="geometry" />
        </mxCell>
        <mxCell id="LnNAMLkMulRpdYiX00u5-89" style="edgeStyle=orthogonalEdgeStyle;rounded=0;orthogonalLoop=1;jettySize=auto;html=1;exitX=0.5;exitY=0;exitDx=0;exitDy=0;" edge="1" parent="1" source="LnNAMLkMulRpdYiX00u5-72">
          <mxGeometry relative="1" as="geometry">
            <mxPoint x="-970.4545454545455" y="680" as="targetPoint" />
          </mxGeometry>
        </mxCell>
        <mxCell id="LnNAMLkMulRpdYiX00u5-72" value="" style="image;html=1;image=img/lib/clip_art/computers/Laptop_128x128.png" vertex="1" parent="1">
          <mxGeometry x="-1010" y="760" width="80" height="80" as="geometry" />
        </mxCell>
        <mxCell id="LnNAMLkMulRpdYiX00u5-76" style="edgeStyle=orthogonalEdgeStyle;rounded=0;orthogonalLoop=1;jettySize=auto;html=1;exitX=0;exitY=0.85;exitDx=0;exitDy=0;exitPerimeter=0;" edge="1" parent="1" source="LnNAMLkMulRpdYiX00u5-75">
          <mxGeometry relative="1" as="geometry">
            <mxPoint x="-1110" y="660" as="targetPoint" />
          </mxGeometry>
        </mxCell>
        <mxCell id="LnNAMLkMulRpdYiX00u5-75" value="" style="fontColor=#0066CC;verticalAlign=top;verticalLabelPosition=bottom;labelPosition=center;align=center;html=1;outlineConnect=0;fillColor=#CCCCCC;strokeColor=#6881B3;gradientColor=none;gradientDirection=north;strokeWidth=2;shape=mxgraph.networks.pc;" vertex="1" parent="1">
          <mxGeometry x="-1090" y="540" width="100" height="70" as="geometry" />
        </mxCell>
        <mxCell id="LnNAMLkMulRpdYiX00u5-77" value="&lt;font style=&quot;font-size: 17px;&quot;&gt;Server&amp;nbsp;&lt;/font&gt;&lt;div&gt;&lt;font style=&quot;font-size: 17px;&quot;&gt;192.168.13.10&lt;/font&gt;&lt;/div&gt;" style="text;html=1;align=center;verticalAlign=middle;resizable=0;points=[];autosize=1;strokeColor=none;fillColor=none;" vertex="1" parent="1">
          <mxGeometry x="-1090" y="470" width="130" height="50" as="geometry" />
        </mxCell>
        <mxCell id="LnNAMLkMulRpdYiX00u5-78" value="&lt;font style=&quot;font-size: 17px;&quot;&gt;Fil server&lt;/font&gt;&lt;div&gt;&lt;font style=&quot;font-size: 17px;&quot;&gt;192.168.13.5&lt;/font&gt;&lt;/div&gt;" style="text;html=1;align=center;verticalAlign=middle;resizable=0;points=[];autosize=1;strokeColor=none;fillColor=none;" vertex="1" parent="1">
          <mxGeometry x="-1455" y="845" width="120" height="50" as="geometry" />
        </mxCell>
        <mxCell id="LnNAMLkMulRpdYiX00u5-79" value="&lt;font style=&quot;font-size: 17px;&quot;&gt;Backup&amp;nbsp;&lt;/font&gt;&lt;div&gt;&lt;font style=&quot;font-size: 17px;&quot;&gt;192.168.13.13&lt;/font&gt;&lt;/div&gt;" style="text;html=1;align=center;verticalAlign=middle;resizable=0;points=[];autosize=1;strokeColor=none;fillColor=none;" vertex="1" parent="1">
          <mxGeometry x="-1270" y="860" width="130" height="50" as="geometry" />
        </mxCell>
        <mxCell id="LnNAMLkMulRpdYiX00u5-80" value="Klient" style="text;html=1;align=center;verticalAlign=middle;resizable=0;points=[];autosize=1;strokeColor=none;fillColor=none;strokeWidth=3;fontSize=26;" vertex="1" parent="1">
          <mxGeometry x="-950" y="850" width="90" height="40" as="geometry" />
        </mxCell>
        <mxCell id="LnNAMLkMulRpdYiX00u5-85" style="edgeStyle=orthogonalEdgeStyle;rounded=0;orthogonalLoop=1;jettySize=auto;html=1;" edge="1" parent="1" target="LnNAMLkMulRpdYiX00u5-75">
          <mxGeometry relative="1" as="geometry">
            <mxPoint x="-870" y="585.090909090909" as="sourcePoint" />
          </mxGeometry>
        </mxCell>
        <mxCell id="LnNAMLkMulRpdYiX00u5-87" value="" style="fontColor=#0066CC;verticalAlign=top;verticalLabelPosition=bottom;labelPosition=center;align=center;html=1;outlineConnect=0;fillColor=#CCCCCC;strokeColor=#6881B3;gradientColor=none;gradientDirection=north;strokeWidth=2;shape=mxgraph.networks.printer;" vertex="1" parent="1">
          <mxGeometry x="-880" y="525" width="100" height="100" as="geometry" />
        </mxCell>
        <mxCell id="LnNAMLkMulRpdYiX00u5-88" value="&lt;font style=&quot;font-size: 17px;&quot;&gt;Printer&lt;/font&gt;&lt;div&gt;&lt;font style=&quot;font-size: 17px;&quot;&gt;HP LaserJet Pro M402-M403 n-dne PCL 6&lt;/font&gt;&lt;/div&gt;" style="text;html=1;align=center;verticalAlign=middle;resizable=0;points=[];autosize=1;strokeColor=none;fillColor=none;" vertex="1" parent="1">
          <mxGeometry x="-950" y="470" width="340" height="50" as="geometry" />
        </mxCell>
      </root>
    </mxGraphModel>
  </diagram>
</mxfile>
